<?xml version="1.0" standalone="no"?>
<!DOCTYPE svg PUBLIC "-//W3C//DTD SVG 20010904//EN"
 "http://www.w3.org/TR/2001/REC-SVG-20010904/DTD/svg10.dtd">
<svg version="1.0" xmlns="http://www.w3.org/2000/svg"
 width="715.000000pt" height="597.000000pt" viewBox="0 0 715.000000 597.000000"
 preserveAspectRatio="xMidYMid meet">
 

<g transform="translate(0.000000,597.000000) scale(0.100000,-0.100000)"
fill="#37b182" stroke="white"
>
<path d="M3320 4518 c0 -3 15 -38 34 -79 87 -191 89 -382 4 -541 -29 -55 -106
-153 -114 -146 -2 2 4 24 12 48 34 97 -11 255 -100 355 l-36 40 16 -40 c24
-60 15 -155 -24 -235 -17 -36 -65 -108 -107 -160 -206 -259 -285 -414 -285
-561 0 -108 46 -292 97 -392 8 -16 12 -31 10 -34 -15 -15 -154 98 -188 153
-35 58 -33 31 5 -51 34 -73 150 -256 168 -263 4 -2 8 -10 8 -18 0 -11 -4 -12
-19 -4 -24 12 -182 13 -231 1 -19 -5 -61 -14 -92 -21 -32 -7 -55 -17 -52 -22
3 -5 -7 -6 -23 -2 -15 4 -25 3 -20 -2 4 -4 17 -9 29 -11 25 -4 42 -24 28 -33
-29 -18 23 -25 195 -25 143 0 211 -5 275 -18 163 -35 329 -101 459 -184 l53
-34 42 16 c22 9 80 39 127 66 231 131 408 177 649 165 69 -3 136 -8 150 -12
20 -4 22 -3 10 5 -8 6 -10 11 -5 11 6 0 15 -4 20 -9 6 -6 39 -15 75 -21 108
-20 128 -21 75 -6 -27 9 -61 15 -75 16 -14 0 -32 5 -40 11 -11 8 -8 9 15 4 28
-6 29 -6 10 9 -29 21 -11 32 35 19 22 -5 40 -7 40 -2 0 22 -244 71 -377 77
-68 2 -123 5 -123 6 0 2 19 22 43 47 116 122 173 362 151 644 -4 61 -10 97
-11 80 -11 -90 -36 -214 -52 -249 -10 -23 -33 -55 -50 -73 l-33 -31 -56 40
c-40 27 -58 35 -60 26 -1 -8 -32 -28 -67 -46 l-65 -32 0 -184 c0 -150 -3 -185
-14 -189 -25 -10 -35 16 -39 98 l-3 80 -2 -86 c-1 -47 -5 -89 -8 -92 -4 -3
-15 -2 -25 4 -17 9 -19 24 -19 177 l-1 167 -24 -47 c-14 -26 -29 -49 -35 -53
-5 -3 -28 -1 -51 5 -22 6 -43 9 -46 6 -3 -3 2 -26 11 -53 14 -42 14 -48 1 -56
-11 -6 -15 -26 -15 -76 0 -72 -6 -87 -26 -70 -8 7 -14 7 -19 -1 -15 -24 -25 6
-25 76 0 44 -4 73 -9 69 -18 -11 -22 15 -6 44 22 44 18 61 -6 24 -27 -43 -42
-42 -65 5 l-19 37 -3 -120 c-3 -139 -6 -153 -27 -135 -12 10 -18 10 -30 0 -21
-18 -24 -4 -27 135 l-3 120 -30 -2 c-16 -1 -42 -4 -57 -8 -23 -6 -29 -2 -53
39 -15 25 -28 46 -30 46 -2 0 4 -21 12 -47 35 -112 34 -103 7 -103 -24 0 -24
-2 -24 -85 0 -69 -3 -87 -16 -92 -9 -3 -20 0 -24 7 -6 10 -8 10 -12 -1 -2 -7
-11 -10 -21 -6 -14 5 -17 21 -17 92 0 83 0 85 -24 85 l-25 0 25 72 c34 100 32
111 -17 133 -23 11 -54 31 -69 45 -28 26 -29 26 -52 8 -29 -22 -40 -22 -55 0
-10 17 19 39 283 218 161 109 304 205 317 213 22 13 30 10 121 -52 54 -37 100
-67 102 -67 2 0 4 18 4 41 l0 40 38 -3 37 -3 5 -69 5 -69 180 -123 c99 -68
183 -123 186 -124 25 -1 38 276 18 386 -56 318 -305 680 -649 945 -127 98
-160 122 -160 117z m-803 -1964 c-3 -3 -12 -4 -19 -1 -8 3 -5 6 6 6 11 1 17
-2 13 -5z"/>
<path d="M3197 3277 c-142 -95 -257 -175 -257 -179 0 -11 108 -48 163 -56 51
-7 51 -7 86 -74 27 -50 40 -66 51 -61 8 3 36 13 61 22 38 14 43 19 32 30 -30
28 10 77 45 55 24 -16 28 -52 5 -61 -16 -6 -15 -8 7 -13 17 -4 32 -20 45 -49
l21 -42 24 38 c22 33 31 38 67 41 25 2 55 -4 74 -13 17 -9 35 -13 39 -8 5 4
19 35 32 68 20 50 29 62 57 71 28 9 30 12 17 23 -23 19 -19 48 8 66 45 30 91
-16 61 -61 -9 -13 -12 -24 -7 -24 20 0 119 46 119 55 -1 6 -17 21 -36 35 -37
26 -427 291 -447 303 -6 3 -126 -71 -267 -166z m280 -14 c3 -8 -4 -13 -16 -13
-19 0 -21 -6 -21 -61 0 -52 -2 -60 -17 -57 -14 2 -19 15 -21 61 -3 49 -6 57
-22 57 -18 0 -26 11 -16 21 11 11 110 3 113 -8z m111 -1 c2 -8 -8 -12 -27 -12
-21 0 -31 -5 -31 -15 0 -9 9 -15 25 -15 16 0 25 -6 25 -15 0 -9 -9 -15 -25
-15 -21 0 -25 -5 -25 -31 0 -24 -4 -30 -17 -27 -15 3 -19 16 -21 67 -2 45 1
67 10 73 18 12 81 5 86 -10z m100 0 c2 -8 -7 -12 -27 -12 -21 0 -31 -5 -31
-15 0 -9 9 -15 25 -15 16 0 25 -6 25 -15 0 -9 -9 -15 -25 -15 -21 0 -25 -5
-25 -30 0 -20 -5 -30 -15 -30 -12 0 -15 15 -15 76 l0 75 42 -3 c23 -2 43 -9
46 -16z m-558 -137 c15 -19 6 -61 -16 -69 -27 -10 -53 3 -60 30 -8 30 11 54
41 54 12 0 28 -7 35 -15z m449 -134 c14 -26 -8 -54 -39 -49 -25 3 -36 27 -26
54 8 20 53 17 65 -5z"/>
<path d="M2331 2529 c-18 -6 -32 -12 -30 -13 8 -7 69 7 69 15 0 5 -1 9 -2 8
-2 0 -18 -5 -37 -10z"/>
<path d="M2245 2500 c-13 -5 -14 -9 -5 -9 8 0 24 4 35 9 13 5 14 9 5 9 -8 0
-24 -4 -35 -9z"/>
<path d="M2365 2470 c3 -5 18 -10 32 -10 32 0 28 5 -10 14 -19 4 -26 3 -22 -4z"/>
<path d="M2338 2453 c7 -3 16 -2 19 1 4 3 -2 6 -13 5 -11 0 -14 -3 -6 -6z"/>
<path d="M2954 2281 c4 -6 2 -9 -6 -6 -8 3 -22 -1 -33 -9 -20 -15 -20 -15 0
-15 51 0 250 -50 384 -95 41 -14 76 -24 78 -22 7 6 -185 89 -271 117 -111 36
-162 46 -152 30z"/>
<path d="M3855 2265 c-98 -26 -237 -79 -312 -120 -54 -30 -56 -30 92 18 61 20
162 46 225 59 63 12 106 24 97 26 -20 4 -23 28 -4 35 30 13 -15 4 -98 -18z"/>
<path d="M1735 2164 c-263 -74 -265 -75 -177 -68 40 3 125 19 190 35 64 16
135 34 157 40 49 12 74 33 30 24 -26 -5 -27 -4 -7 4 24 11 29 22 10 20 -7 -1
-98 -25 -203 -55z"/>
<path d="M4948 2200 c30 -13 28 -24 -3 -16 -14 4 -25 2 -25 -4 0 -5 7 -10 16
-10 9 0 62 -13 118 -29 121 -35 255 -61 305 -60 42 1 58 -4 -242 79 -171 48
-217 59 -169 40z"/>
<path d="M2826 2105 c4 -8 14 -15 24 -15 18 0 21 -25 6 -48 -3 -5 56 -12 132
-15 75 -4 188 -14 251 -22 62 -9 115 -14 118 -12 6 7 -112 53 -192 76 -92 26
-235 51 -296 51 -39 0 -47 -3 -43 -15z"/>
<path d="M3865 2104 c-93 -17 -285 -76 -335 -104 -40 -22 -33 -24 41 -10 65
13 331 39 414 41 l60 2 -45 7 -45 7 38 1 c34 2 37 4 37 31 0 16 6 32 13 34 26
11 -102 4 -178 -9z"/>
<path d="M1690 2063 c-121 -20 -416 -77 -460 -88 -55 -15 -54 -15 70 -10 199
8 402 27 388 37 -10 6 -10 10 2 18 10 6 11 10 3 10 -27 0 -11 17 25 27 37 10
20 14 -28 6z"/>
<path d="M5175 2050 c3 -5 1 -10 -5 -10 -6 0 -4 -8 6 -17 15 -16 15 -17 -2
-24 -26 -9 24 -15 271 -34 110 -8 212 -17 228 -18 32 -4 36 9 5 16 -78 17
-430 86 -466 91 -29 4 -41 3 -37 -4z"/>
<path d="M3320 1780 c0 -16 5 -30 10 -30 6 0 10 14 10 30 0 17 -4 30 -10 30
-5 0 -10 -13 -10 -30z"/>
<path d="M1190 1785 c0 -9 9 -15 25 -15 24 0 25 -2 25 -65 0 -51 3 -65 15 -65
12 0 15 14 15 64 0 59 2 65 22 68 12 2 23 9 26 16 3 9 -14 12 -62 12 -52 0
-66 -3 -66 -15z"/>
<path d="M1360 1720 c0 -64 3 -80 15 -80 10 0 15 11 15 35 0 33 2 35 35 35 33
0 35 -2 35 -35 0 -24 5 -35 15 -35 12 0 15 16 15 80 0 63 -3 80 -14 80 -9 0
-16 -12 -18 -32 -3 -29 -6 -33 -33 -33 -27 0 -30 4 -33 33 -2 20 -9 32 -18 32
-11 0 -14 -17 -14 -80z"/>
<path d="M1540 1720 l0 -80 55 0 c42 0 55 3 55 15 0 11 -11 15 -40 15 -33 0
-40 3 -40 20 0 15 7 20 29 20 29 0 55 19 29 21 -7 1 -17 2 -23 4 -5 1 -16 3
-22 3 -7 1 -13 8 -13 16 0 10 13 16 37 18 62 5 53 28 -11 28 l-56 0 0 -80z"/>
<path d="M1772 1723 c3 -65 6 -78 21 -81 14 -3 17 4 17 32 0 33 2 36 30 36 17
0 30 5 30 10 0 6 -13 10 -30 10 -23 0 -30 5 -30 19 0 15 8 21 32 23 17 2 33 9
36 16 3 9 -12 12 -53 12 l-56 0 3 -77z"/>
<path d="M1930 1720 l0 -80 50 0 c38 0 50 4 50 15 0 10 -11 15 -35 15 l-35 0
0 65 c0 51 -3 65 -15 65 -12 0 -15 -16 -15 -80z"/>
<path d="M2077 1782 c-26 -29 -23 -107 5 -126 31 -22 64 -20 88 6 24 26 27 84
4 116 -19 28 -74 30 -97 4z m79 -36 c8 -33 2 -57 -17 -69 -29 -18 -49 -1 -49
41 0 45 5 52 36 52 17 0 25 -7 30 -24z"/>
<path d="M2240 1740 c0 -67 21 -100 63 -100 42 0 55 20 59 90 2 55 0 65 -14
68 -14 3 -17 -7 -20 -60 -2 -52 -6 -63 -22 -66 -26 -5 -36 15 -36 76 0 39 -4
52 -15 52 -12 0 -15 -13 -15 -60z"/>
<path d="M2414 1786 c-3 -7 -4 -42 -2 -77 2 -51 6 -64 21 -67 13 -3 17 3 17
27 0 40 24 41 40 1 8 -18 20 -30 31 -30 19 0 19 1 3 32 -13 24 -14 36 -5 50
17 27 13 56 -8 68 -28 15 -91 13 -97 -4z m81 -36 c0 -8 -10 -16 -22 -18 -18
-3 -23 2 -23 18 0 16 5 21 23 18 12 -2 22 -10 22 -18z"/>
<path d="M2580 1720 c0 -64 3 -80 15 -80 12 0 15 16 15 80 0 64 -3 80 -15 80
-12 0 -15 -16 -15 -80z"/>
<path d="M2680 1785 c-19 -23 -7 -49 33 -70 20 -11 37 -26 37 -32 0 -16 -42
-17 -57 -2 -6 6 -17 9 -24 7 -22 -7 28 -48 60 -48 61 0 69 64 11 91 -34 17
-46 39 -24 46 7 2 19 -3 27 -12 19 -18 37 -20 37 -2 0 35 -75 52 -100 22z"/>
<path d="M2830 1720 c0 -63 3 -80 14 -80 9 0 16 12 18 33 3 28 7 32 36 35 31
3 32 2 32 -32 0 -25 4 -36 15 -36 12 0 15 16 15 80 0 63 -3 80 -14 80 -9 0
-16 -12 -18 -32 -3 -29 -6 -33 -33 -33 -27 0 -30 4 -33 33 -2 20 -9 32 -18 32
-11 0 -14 -17 -14 -80z"/>
<path d="M3010 1720 l0 -80 55 0 c42 0 55 3 55 15 0 11 -11 15 -40 15 -33 0
-40 3 -40 20 0 16 7 20 36 20 24 0 34 4 32 12 -3 7 -18 12 -34 13 -19 0 -30 6
-32 18 -3 14 4 17 37 17 30 0 41 4 41 15 0 12 -13 15 -55 15 l-55 0 0 -80z"/>
<path d="M3162 1723 c2 -47 7 -78 15 -80 7 -3 13 8 15 24 4 38 30 40 46 3 9
-19 21 -30 34 -30 l20 0 -20 34 c-18 30 -19 36 -6 47 20 17 17 57 -5 69 -11 5
-38 10 -61 10 l-41 0 3 -77z m83 27 c0 -9 -11 -16 -27 -18 -23 -3 -28 1 -28
18 0 17 5 21 28 18 16 -2 27 -9 27 -18z"/>
<path d="M3396 1778 c-20 -28 -6 -53 39 -68 19 -6 35 -18 35 -26 0 -17 -33
-18 -60 -2 -27 17 -37 2 -15 -22 21 -24 77 -27 95 -6 21 26 8 60 -30 77 -34
17 -46 39 -24 46 7 2 19 -3 27 -12 19 -18 37 -20 37 -2 0 40 -78 52 -104 15z"/>
<path d="M3630 1720 c0 -64 3 -80 15 -80 10 0 15 11 15 35 0 33 2 35 35 35 19
0 35 5 35 10 0 6 -16 10 -35 10 -28 0 -35 4 -35 20 0 16 7 20 35 20 24 0 35 5
35 15 0 11 -12 15 -50 15 l-50 0 0 -80z"/>
<path d="M3805 1791 c-6 -12 -55 -139 -55 -146 0 -11 30 -4 37 9 4 7 20 15 35
18 21 4 29 1 33 -13 6 -19 35 -27 35 -10 0 6 -12 42 -26 80 -24 65 -44 86 -59
62z m31 -88 c-2 -3 -11 -3 -19 -1 -11 2 -12 9 -5 28 l10 25 9 -24 c5 -13 7
-26 5 -28z"/>
<path d="M3934 1786 c-3 -7 -4 -42 -2 -77 3 -53 6 -64 22 -67 17 -4 19 1 13
54 -5 60 -3 59 27 -18 8 -21 19 -38 25 -38 5 0 18 24 28 53 l18 52 3 -52 c2
-38 7 -53 18 -53 11 0 14 17 14 81 0 76 -1 80 -21 77 -16 -2 -27 -18 -42 -58
l-20 -55 -19 58 c-15 43 -24 57 -39 57 -11 0 -22 -6 -25 -14z"/>
<path d="M4150 1720 c0 -64 3 -80 15 -80 12 0 15 16 15 80 0 64 -3 80 -15 80
-12 0 -15 -16 -15 -80z"/>
<path d="M4240 1720 l0 -80 50 0 c38 0 50 4 50 15 0 10 -11 15 -35 15 l-35 0
0 65 c0 51 -3 65 -15 65 -12 0 -15 -16 -15 -80z"/>
<path d="M4340 1795 c0 -2 11 -24 25 -49 14 -25 25 -59 25 -75 0 -21 5 -31 15
-31 10 0 15 10 15 33 0 17 11 50 25 72 29 47 30 55 10 55 -9 0 -23 -16 -32
-35 l-17 -36 -18 36 c-10 19 -25 35 -33 35 -8 0 -15 -2 -15 -5z"/>
<path d="M4606 1778 c-9 -12 -16 -39 -16 -60 0 -70 66 -102 112 -56 22 22 22
23 3 27 -10 2 -21 -2 -23 -8 -2 -6 -14 -11 -28 -11 -17 0 -25 7 -30 25 -14 55
19 100 51 69 8 -9 22 -14 30 -12 14 3 14 6 0 26 -22 30 -78 31 -99 0z"/>
<path d="M4764 1786 c-3 -7 -4 -42 -2 -77 2 -51 6 -64 21 -67 14 -3 17 4 17
32 0 33 2 36 30 36 28 0 30 -3 30 -35 0 -24 5 -35 15 -35 12 0 15 16 15 80 0
64 -3 80 -15 80 -10 0 -15 -11 -15 -35 0 -32 -2 -35 -30 -35 -28 0 -30 3 -30
35 0 25 -4 35 -15 35 -9 0 -18 -6 -21 -14z"/>
<path d="M4940 1740 c0 -68 21 -100 65 -100 44 0 65 32 65 100 0 53 -2 60 -20
60 -18 0 -20 -7 -20 -65 0 -63 -1 -65 -25 -65 -23 0 -25 3 -26 53 -1 28 -1 58
0 65 1 6 -7 12 -19 12 -18 0 -20 -6 -20 -60z"/>
<path d="M5120 1720 c0 -64 3 -80 15 -80 10 0 15 10 15 30 0 20 5 30 15 30 8
0 21 -13 30 -30 9 -16 22 -30 30 -30 19 0 19 5 -1 35 -14 22 -14 26 1 49 16
24 16 28 1 51 -14 21 -25 25 -61 25 l-45 0 0 -80z m80 30 c0 -15 -7 -20 -25
-20 -18 0 -25 5 -25 20 0 15 7 20 25 20 18 0 25 -5 25 -20z"/>
<path d="M5297 1782 c-24 -26 -23 -104 1 -125 21 -19 54 -22 83 -7 23 13 26
40 4 40 -8 0 -15 -5 -15 -11 0 -6 -12 -9 -27 -7 -25 3 -28 8 -31 44 -2 26 2
45 11 53 15 12 47 5 47 -10 0 -5 7 -9 15 -9 18 0 20 21 3 38 -18 18 -73 14
-91 -6z"/>
<path d="M5452 1723 c3 -65 6 -78 21 -81 14 -3 17 4 17 32 0 33 2 36 30 36 28
0 30 -3 30 -35 0 -24 5 -35 15 -35 12 0 15 16 15 80 0 64 -3 80 -15 80 -10 0
-15 -10 -15 -33 0 -31 -3 -34 -30 -35 -28 -1 -30 2 -30 34 0 28 -4 34 -20 34
-19 0 -21 -5 -18 -77z"/>
<path d="M2530 1454 l0 -65 38 3 c32 3 37 7 40 31 4 33 -13 57 -39 57 -12 0
-19 7 -19 20 0 11 -4 20 -10 20 -6 0 -10 -29 -10 -66z m55 -24 c0 -27 -22 -39
-31 -16 -8 22 3 49 19 43 6 -2 12 -14 12 -27z"/>
<path d="M2630 1455 c0 -48 4 -65 14 -65 10 0 13 13 10 48 -1 26 -3 55 -3 65
-1 9 -5 17 -11 17 -6 0 -10 -28 -10 -65z"/>
<path d="M3117 1496 c-11 -17 -13 -33 -7 -59 4 -20 5 -38 2 -41 -3 -4 2 -6 11
-6 13 0 17 9 17 35 0 19 5 35 11 35 8 0 7 6 -2 17 -11 13 -11 17 -1 20 16 6
15 23 -2 23 -7 0 -21 -11 -29 -24z"/>
<path d="M3320 1455 c0 -46 4 -65 13 -65 7 0 12 13 12 33 0 22 5 32 15 32 10
0 16 -12 18 -32 5 -49 24 -40 20 10 -3 39 -5 42 -31 40 -15 -1 -25 2 -22 7 7
11 -5 40 -16 40 -5 0 -9 -29 -9 -65z"/>
<path d="M3683 1504 c-3 -8 -1 -20 6 -27 8 -8 11 -4 11 16 0 30 -7 35 -17 11z"/>
<path d="M4090 1456 c0 -60 1 -64 26 -69 30 -5 54 15 54 47 0 28 -24 50 -45
42 -11 -4 -15 1 -15 19 0 14 -4 25 -10 25 -6 0 -10 -28 -10 -64z m54 -12 c7
-19 -12 -47 -25 -38 -5 3 -9 16 -9 30 0 27 24 33 34 8z"/>
<path d="M4610 1495 c0 -18 -4 -23 -15 -19 -23 9 -45 -15 -45 -47 0 -32 21
-48 56 -41 22 4 24 9 24 68 0 36 -4 64 -10 64 -5 0 -10 -11 -10 -25z m-4 -50
c4 -8 4 -22 0 -30 -7 -19 -36 -8 -36 14 0 32 26 43 36 16z"/>
<path d="M2015 1474 c-20 -48 -29 -84 -21 -84 3 0 15 6 26 12 16 10 24 10 41
0 12 -7 23 -11 26 -8 8 8 -32 109 -45 114 -6 2 -18 -14 -27 -34z m35 -29 c0
-8 -4 -15 -10 -15 -5 0 -10 7 -10 15 0 8 5 15 10 15 6 0 10 -7 10 -15z"/>
<path d="M3226 1494 c-19 -18 -21 -75 -4 -92 17 -17 63 -15 79 4 11 14 9 15
-23 9 -31 -6 -37 -4 -43 14 -15 48 23 82 50 44 8 -10 14 -12 19 -5 8 14 -21
42 -44 42 -10 0 -26 -7 -34 -16z"/>
<path d="M3485 1500 c3 -5 10 -10 16 -10 5 0 9 5 9 10 0 6 -7 10 -16 10 -8 0
-12 -4 -9 -10z"/>
<path d="M3627 1487 c-10 -26 8 -92 26 -95 16 -3 17 -1 5 17 -10 17 -10 25 0
41 10 17 10 23 -2 35 -18 18 -22 19 -29 2z"/>
<path d="M2110 1465 c-10 -12 -10 -18 0 -30 7 -8 19 -15 26 -15 8 0 14 -5 14
-10 0 -6 -12 -8 -27 -5 -27 6 -27 6 -9 -9 25 -20 31 -20 51 0 12 12 13 19 4
30 -6 8 -17 14 -25 14 -7 0 -16 5 -20 11 -5 9 1 10 20 5 21 -5 27 -3 24 6 -7
19 -43 21 -58 3z"/>
<path d="M2199 1464 c-11 -14 -10 -18 6 -30 10 -8 22 -14 27 -14 4 0 8 -5 8
-10 0 -6 -11 -8 -26 -4 -18 5 -25 3 -21 -3 11 -17 45 -22 64 -8 15 11 15 15 4
29 -7 9 -20 16 -27 16 -8 0 -14 5 -14 10 0 6 11 8 28 4 24 -7 26 -6 13 9 -17
21 -45 22 -62 1z"/>
<path d="M2296 1464 c-19 -18 -21 -45 -4 -62 15 -15 68 -16 68 -1 0 5 -8 9
-17 7 -10 -1 -18 2 -18 7 0 6 8 9 18 9 20 -2 23 26 5 44 -16 16 -33 15 -52 -4z
m39 -14 c3 -5 -1 -10 -9 -10 -9 0 -16 5 -16 10 0 6 4 10 9 10 6 0 13 -4 16
-10z"/>
<path d="M2380 1434 c0 -50 17 -60 22 -12 4 46 28 49 28 4 0 -44 18 -48 22 -4
4 46 28 49 28 4 0 -25 4 -36 15 -36 19 0 21 65 3 77 -7 4 -37 9 -65 9 l-53 1
0 -43z"/>
<path d="M2693 1474 c-24 -10 -13 -24 12 -18 15 4 25 2 25 -4 0 -6 -10 -12
-22 -14 -15 -2 -24 -11 -26 -25 -3 -21 1 -23 35 -23 l39 0 -5 43 c-6 42 -24
55 -58 41z m37 -58 c0 -11 -19 -15 -25 -6 -3 5 1 10 9 10 9 0 16 -2 16 -4z"/>
<path d="M2780 1465 c-6 -8 -10 -26 -8 -42 2 -22 9 -29 31 -31 31 -4 27 -22
-6 -22 -15 0 -18 -3 -10 -11 7 -7 23 -9 37 -5 24 6 26 10 26 65 0 57 0 58 -29
59 -16 0 -35 -6 -41 -13z m46 -20 c4 -8 3 -23 0 -32 -6 -15 -8 -15 -23 -1 -16
17 -12 48 7 48 6 0 13 -7 16 -15z"/>
<path d="M2886 1464 c-19 -18 -21 -45 -4 -62 14 -14 68 -16 68 -2 0 5 -10 9
-21 7 -12 -1 -24 3 -26 9 -2 7 2 12 9 11 38 -1 47 4 41 21 -13 34 -42 41 -67
16z m44 -14 c0 -5 -7 -10 -15 -10 -8 0 -15 5 -15 10 0 6 7 10 15 10 8 0 15 -4
15 -10z"/>
<path d="M3016 1464 c-33 -32 -13 -74 36 -74 21 0 29 6 34 24 13 52 -35 86
-70 50z m44 -28 c0 -14 -5 -28 -10 -31 -13 -8 -24 20 -16 40 9 24 26 17 26 -9z"/>
<path d="M3420 1434 c0 -32 4 -44 15 -44 10 0 15 10 15 30 0 17 7 33 18 39 9
6 15 11 12 11 -58 12 -60 10 -60 -36z"/>
<path d="M3488 1435 c-2 -31 1 -45 9 -45 9 0 13 16 13 45 0 25 -4 45 -9 45 -5
0 -11 -20 -13 -45z"/>
<path d="M3539 1464 c-11 -14 -10 -18 6 -30 10 -8 22 -14 27 -14 4 0 8 -5 8
-10 0 -6 -12 -8 -27 -5 -27 6 -27 6 -9 -9 24 -19 27 -20 51 -2 16 12 17 16 6
30 -7 9 -20 16 -27 16 -8 0 -14 5 -14 10 0 6 11 8 28 4 24 -7 26 -6 13 9 -17
21 -45 22 -62 1z"/>
<path d="M3717 1474 c-16 -16 -6 -42 18 -48 14 -4 25 -11 25 -17 0 -7 -10 -9
-25 -5 -14 4 -25 2 -25 -3 0 -13 35 -20 54 -9 24 13 20 37 -9 48 -33 13 -32
24 1 16 19 -5 25 -3 22 6 -5 14 -50 23 -61 12z"/>
<path d="M3849 1463 c-13 -15 -11 -16 14 -9 15 3 27 2 27 -3 0 -5 -10 -11 -22
-13 -15 -2 -23 -10 -23 -23 0 -16 8 -21 38 -23 36 -3 37 -2 37 30 0 54 -41 78
-71 41z m38 -59 c-9 -9 -28 6 -21 18 4 6 10 6 17 -1 6 -6 8 -13 4 -17z"/>
<path d="M3934 1471 c-2 -2 -4 -22 -4 -43 0 -27 4 -38 15 -38 11 0 15 11 15
36 0 45 24 42 28 -4 2 -18 7 -32 12 -32 5 0 10 14 12 32 4 46 28 49 28 4 0
-20 5 -36 11 -36 6 0 9 17 7 43 l-3 42 -58 0 c-32 0 -60 -1 -63 -4z"/>
<path d="M4197 1473 c-13 -12 -7 -25 9 -19 9 3 21 3 27 -1 7 -4 2 -9 -13 -13
-16 -4 -26 -14 -28 -28 -3 -19 1 -22 32 -22 35 0 36 1 36 39 0 26 -5 41 -16
45 -20 8 -39 8 -47 -1z m38 -63 c-3 -5 -10 -10 -16 -10 -5 0 -9 5 -9 10 0 6 7
10 16 10 8 0 12 -4 9 -10z"/>
<path d="M4293 1473 c-23 -9 -15 -42 12 -49 14 -3 25 -11 25 -16 0 -6 -11 -7
-25 -4 -15 4 -25 2 -25 -4 0 -7 14 -10 32 -8 42 4 51 34 14 48 -33 12 -34 24
-1 16 27 -7 35 8 9 18 -18 7 -23 7 -41 -1z"/>
<path d="M4383 1474 c-21 -9 -15 -34 12 -46 34 -15 32 -32 -2 -24 -26 6 -26 5
-10 -8 10 -8 27 -12 37 -9 28 8 25 42 -5 53 -33 13 -32 24 1 16 19 -5 25 -3
22 6 -5 14 -35 20 -55 12z"/>
<path d="M4469 1463 c-13 -15 -11 -16 14 -9 15 3 27 2 27 -3 0 -5 -10 -11 -22
-13 -25 -3 -37 -36 -19 -48 6 -3 25 -5 41 -2 27 4 29 7 24 36 -3 17 -7 37 -10
44 -5 17 -39 15 -55 -5z m41 -47 c0 -11 -19 -15 -25 -6 -3 5 1 10 9 10 9 0 16
-2 16 -4z"/>
<path d="M4658 1454 c-14 -31 -1 -57 31 -62 45 -7 67 40 35 72 -23 24 -53 19
-66 -10z m50 -19 c-2 -14 -7 -26 -13 -26 -5 0 -11 12 -13 26 -2 18 1 25 13 25
12 0 15 -7 13 -25z"/>
<path d="M4760 1434 c0 -24 5 -44 10 -44 6 0 10 14 10 30 0 18 6 33 15 36 23
9 18 22 -10 22 -23 0 -25 -4 -25 -44z"/>
<path d="M4827 1473 c-16 -15 -6 -41 18 -47 14 -4 25 -11 25 -17 0 -7 -10 -9
-25 -5 -15 4 -25 2 -25 -4 0 -7 14 -10 33 -8 24 2 32 8 32 23 0 13 -8 21 -22
23 -13 2 -23 8 -23 13 0 5 11 7 25 3 14 -3 25 -2 25 4 0 17 -49 29 -63 15z"/>
<path d="M1840 1400 c0 -5 7 -10 16 -10 8 0 12 5 9 10 -3 6 -10 10 -16 10 -5
0 -9 -4 -9 -10z"/>
<path d="M1890 1400 c0 -5 7 -10 16 -10 8 0 12 5 9 10 -3 6 -10 10 -16 10 -5
0 -9 -4 -9 -10z"/>
<path d="M1940 1400 c0 -5 7 -10 15 -10 8 0 15 5 15 10 0 6 -7 10 -15 10 -8 0
-15 -4 -15 -10z"/>
<path d="M4910 1400 c0 -5 7 -10 16 -10 8 0 12 5 9 10 -3 6 -10 10 -16 10 -5
0 -9 -4 -9 -10z"/>
</g>
</svg>
