<?xml version="1.0" standalone="no"?>
<!DOCTYPE svg PUBLIC "-//W3C//DTD SVG 20010904//EN"
 "http://www.w3.org/TR/2001/REC-SVG-20010904/DTD/svg10.dtd">
<svg version="1.0" xmlns="http://www.w3.org/2000/svg"
 width="219.000000pt" height="123.000000pt" viewBox="0 0 219.000000 123.000000"
 preserveAspectRatio="xMidYMid meet">

<g transform="translate(0.000000,123.000000) scale(0.100000,-0.100000)"
fill="#000000" stroke="none">
<path d="M600 1177 c-187 -53 -292 -266 -221 -449 29 -76 97 -150 169 -184 49
-24 69 -28 147 -28 78 0 98 4 147 28 73 34 147 115 172 185 25 70 25 172 0
242 -25 68 -99 150 -169 184 -64 32 -176 42 -245 22z"/>
<path d="M1400 1177 c-97 -27 -191 -114 -223 -205 -24 -67 -25 -177 -1 -243
25 -69 101 -151 172 -186 49 -24 69 -27 147 -27 78 0 98 3 147 27 251 122 253
490 3 613 -64 31 -176 41 -245 21z"/>
<path d="M485 446 c-34 -15 -55 -52 -55 -96 0 -27 -3 -30 -30 -30 -27 0 -30
-3 -30 -30 0 -27 3 -30 30 -30 l30 0 0 -115 0 -115 45 0 45 0 0 115 0 115 35
0 c32 0 35 2 35 30 0 28 -3 30 -35 30 -32 0 -35 2 -35 30 0 23 6 33 23 39 12
5 28 6 35 3 10 -3 13 4 10 29 -3 31 -6 34 -38 36 -19 2 -49 -3 -65 -11z"/>
<path d="M650 240 l0 -210 45 0 45 0 0 210 0 210 -45 0 -45 0 0 -210z"/>
<path d="M1280 240 l0 -210 45 0 44 0 3 78 3 77 43 -77 43 -78 55 0 55 0 -54
79 -54 78 29 39 c16 21 39 51 50 67 l19 27 -49 0 -50 0 -38 -60 c-22 -33 -42
-60 -46 -60 -5 0 -8 56 -8 125 l0 125 -45 0 -45 0 0 -210z"/>
<path d="M835 410 c0 -29 2 -30 43 -30 40 0 42 1 42 30 0 29 -2 30 -42 30 -41
0 -43 -1 -43 -30z"/>
<path d="M1081 308 c-64 -33 -86 -67 -85 -133 1 -59 19 -94 59 -121 34 -23 93
-34 138 -27 34 5 37 8 37 38 0 33 -1 33 -39 28 -46 -6 -83 15 -100 56 -24 57
29 119 93 108 31 -5 34 -3 39 21 7 35 -2 43 -55 49 -32 3 -54 -2 -87 -19z"/>
<path d="M1755 318 c-11 -6 -28 -21 -37 -32 -17 -21 -17 -21 -18 7 0 25 -3 27
-40 27 l-40 0 0 -145 0 -145 45 0 45 0 0 85 c0 78 2 88 25 110 15 16 36 25 55
25 28 0 30 2 30 40 0 35 -3 40 -22 40 -13 0 -32 -6 -43 -12z"/>
<path d="M832 175 l-3 -145 48 0 48 0 0 145 0 145 -45 0 -45 0 -3 -145z"/>
</g>
</svg>
